# xmcd
#
# Track frame offsets:
#	150
#	16147
#	31325
#	41525
#	75752
#	86462
#	101987
#	122715
#	133865
#	138857
#	142897
#	152190
#	164212
#	179960
#	192217
#	210632
#	234882
#	261642
#	284315
#	294620
#	316617
#
# Disc length: 4656 seconds
#
# Revision: 4
# Processed by: cddbd v1.5.2PL0 Copyright (c) Steve Scherf et al.
# Submitted via: EZCDAudioConverter 2.1.7.1
#
DISCID=2d122e15
DTITLE=Jade Warrior - Elements 2/2
DYEAR=1995
DGENRE=
TTITLE0=Songs Of The Forest
TTITLE1=Wind Song
TTITLE2=The Emperor Kite
TTITLE3=Wind Borne
TTITLE4=Kite Song
TTITLE5=Land Of The Warrior
TTITLE6=Quietly By The River Bank
TTITLE7=Arrival Of The Emperor: ''What Does The Venerable Sir Do?''
TTITLE8=Teh Ch'eng: ''Do You Understand This?''
TTITLE9=Arrival Of Chia Shan: Discourse And Liberation
TTITLE10=Towards The Mountains
TTITLE11=The Last Question
TTITLE12=Sun Ra
TTITLE13=Sun Child
TTITLE14=Moontears
TTITLE15=Heaven Stone
TTITLE16=Way Of The Sun
TTITLE17=River Song
TTITLE18=Carnival
TTITLE19=Dance Of The Sun
TTITLE20=Death Of Ra
EXTD=
EXTT0=
EXTT1=
EXTT2=
EXTT3=
EXTT4=
EXTT5=
EXTT6=
EXTT7=
EXTT8=
EXTT9=
EXTT10=
EXTT11=
EXTT12=
EXTT13=
EXTT14=
EXTT15=
EXTT16=
EXTT17=
EXTT18=
EXTT19=
EXTT20=
PLAYORDER=
